#!OML:ASF H:\Terrain\Patient Classification 1\Terrain2\Thursday\justin.ASF
:FULLY-SPECIFIED
:DEGREES
1955
root 8.70939 24.4894 12.6856 -180.662 -0.754891 -175.007
lowerback 7.90455 0.224665 2.18814
upperback 2.1475 0.269667 3.51219
thorax -2.21291 0.000638697 2.37823
lowerneck -12.3755 -0.263653 -10.0501
upperneck 38.568 -5.74997 7.1816
head 16.3334 -4.59499 3.50086
rclavicle -2.68359e-015 -1.82882e-014
rhumerus -30.0754 -11.0464 -78.6481
rradius 34.3674
rwrist -10.1341
rhand -21.9283 11.3476
rfingers 7.12502
rthumb 4.47796 -18.5851
lclavicle -2.68359e-015 -1.82882e-014
lhumerus -32.0099 1.10103 88.3017
lradius 25.88
lwrist -5.65526
lhand -20.778 18.3836
lfingers 7.12502
lthumb 5.58869 48.2899
rfemur -21.7008 -4.60647 25.8
rtibia 47.3497
rfoot -5.06745 13.8916
rtoes -25.7645
lfemur 6.74422 -0.192476 -17.3799
ltibia 1.51076e-014
lfoot -1.10557 -10.8627
ltoes 5.67146
1956
root 8.68585 24.5152 12.645 -180.912 -0.427677 -175.27
lowerback 8.07751 0.336897 2.09063
upperback 2.24114 0.417395 3.28358
thorax -2.21525 0.078066 2.18121
lowerneck -12.6025 -0.33785 -10.0701
upperneck 38.5893 -5.9171 7.41672
head 16.4352 -4.62847 3.58045
rclavicle -2.23633e-015 -1.59028e-015
rhumerus -30.2167 -11.3163 -78.6311
rradius 34.1604
rwrist -9.68608
rhand -21.6939 11.7725
rfingers 7.12502
rthumb 4.70433 -18.1552
lclavicle -2.23633e-015 -1.59028e-015
lhumerus -31.7923 0.88937 88.2599
lradius 26.1069
lwrist -5.38724
lhand -20.7258 19.5639
lfingers 7.12502
lthumb 5.63905 49.4689
rfemur -22.4261 -4.61602 25.3381
rtibia 49.1378
rfoot -3.69151 14.7274
rtoes -26.602
lfemur 7.20425 0.140539 -17.7448
ltibia 5.56597e-015
lfoot -1.32065 -10.9261
ltoes 5.07076
1957
root 8.66159 24.5411 12.6066 -181.166 -0.139262 -175.511
lowerback 8.31835 0.365688 1.91248
upperback 2.2661 0.450045 3.19251
thorax -2.3249 0.095589 2.18397
lowerneck -12.6301 -0.262743 -9.93674
upperneck 38.5814 -5.69538 7.14129
head 16.3919 -4.54646 3.47162
rclavicle -1.14301e-015 1.59028e-015
rhumerus -30.4236 -11.0789 -78.5137
rradius 33.8097
rwrist -9.82014
rhand -21.404 12.6944
rfingers 7.12502
rthumb 4.98425 -17.2269
lclavicle -1.14301e-015 1.59028e-015
lhumerus -31.8234 1.31625 88.1648
lradius 26.2699
lwrist -5.29074
lhand -20.5712 19.6535
lfingers 7.12502
lthumb 5.78835 49.5544
rfemur -23.2876 -4.53481 24.8755
rtibia 51.0763
rfoot -2.27603 15.3626
rtoes -27.5328
lfemur 7.65781 0.437187 -18.076
ltibia 0
lfoot -1.68012 -10.9267
ltoes 4.28299
1958
root 8.64138 24.5688 12.5726 -181.234 0.0402756 -175.825
lowerback 8.36566 0.344597 1.50864
upperback 2.22401 0.398766 3.20338
thorax -2.39727 0.0744088 2.42816
lowerneck -12.4363 -0.15004 -9.83466
upperneck 38.4897 -5.29871 6.57084
head 16.2191 -4.43601 3.26753
rclavicle 1.54058e-015 1.15295e-014
rhumerus -30.6018 -10.494 -78.3219
rradius 33.4103
rwrist -9.79599
rhand -20.8986 13.5465
rfingers 7.12502
rthumb 5.47223 -16.3629
lclavicle 1.54058e-015 1.15295e-014
lhumerus -31.8202 2.20202 88.0339
lradius 26.3339
lwrist -5.48133
lhand -20.2039 19.2686
lfingers 7.12502
lthumb 6.14293 49.1595
rfemur -24.5108 -4.47841 24.3883
rtibia 53.1444
rfoot -0.812289 15.6077
rtoes -28.4755
lfemur 7.86934 0.633504 -18.4648
ltibia 7.15625e-015
lfoot -2.00817 -10.8228
ltoes 2.95636
1959
root 8.62345 24.5938 12.5338 -181.341 0.039029 -176.23
lowerback 8.35199 0.298419 1.0419
upperback 2.27482 0.301235 3.12475
thorax -2.33704 0.0305055 2.61924
lowerneck -12.4462 -5.62993 -8.78573
upperneck 39.0383 -2.71196 3.92373
head 16.3514 -0.372959 3.27451
rclavicle -4.96962e-016 3.57812e-015
rhumerus -30.5977 -10.0296 -78.3013
rradius 33.0688
rwrist -9.58013
rhand -20.4223 13.7315
rfingers 7.12502
rthumb 5.93214 -16.1655
lclavicle -4.96962e-016 3.57812e-015
lhumerus -31.5926 2.79926 87.9074
lradius 26.2801
lwrist -5.54718
lhand -21.0995 19.452
lfingers 7.12502
lthumb 5.27827 49.3663
rfemur -25.7192 -4.65693 23.7915
rtibia 55.3047
rfoot 0.0906885 15.736
rtoes -29.7902
lfemur 8.12076 0.651563 -18.9466
ltibia -1.90833e-014
lfoot -1.80153 -10.9379
ltoes 5.49876
1960
root 8.6056 24.6098 12.4906 -181.721 -0.0372463 -176.508
lowerback 8.50254 0.293408 0.948337
upperback 2.50329 0.272422 2.86967
thorax -2.18249 0.0135311 2.40947
lowerneck -12.5881 -0.225332 -10.0133
upperneck 38.2451 -5.27992 6.73356
head 16.1392 -4.39365 3.37655
rclavicle 2.18663e-015 3.45885e-014
rhumerus -30.4781 -10.134 -78.4578
rradius 32.6482
rwrist -9.29989
rhand -20.2346 13.5004
rfingers 7.12502
rthumb 6.1133 -16.3914
lclavicle 2.18663e-015 3.45885e-014
lhumerus -31.1955 2.99702 87.6486
lradius 26.2248
lwrist -5.56138
lhand -21.6142 19.3402
lfingers 7.12502
lthumb 4.78129 49.2663
rfemur -26.587 -4.86291 23.3014
rtibia 57.5131
rfoot 0.214347 15.815
rtoes -30.2328
lfemur 8.68146 0.588666 -19.279
ltibia -1.03368e-014
lfoot -1.20318 -11.3396
ltoes 10.8542
1961
root 8.5881 24.6269 12.4528 -181.966 0.0801279 -176.737
lowerback 8.60086 0.0250285 0.875358
upperback 2.65666 0.448956 2.59181
thorax -2.08663 0.335992 2.13528
lowerneck -12.7357 -0.256094 -9.71515
upperneck 38.2312 -5.34299 6.68379
head 16.1657 -4.36786 3.29055
rclavicle -1.09332e-015 5.56597e-015
rhumerus -30.5844 -10.3716 -78.5399
rradius 32.2246
rwrist -8.92895
rhand -20.2419 13.6849
rfingers 7.12502
rthumb 6.10627 -16.2071
lclavicle -1.09332e-015 5.56597e-015
lhumerus -31.0033 3.2125 87.3122
lradius 26.371
lwrist -5.73671
lhand -20.8924 18.6962
lfingers 7.12502
lthumb 5.47824 48.6054
rfemur -27.703 -5.07216 22.91
rtibia 59.759
rfoot -0.0837889 16.1266
rtoes -29.8019
lfemur 9.07173 0.722644 -19.5563
ltibia 1.11319e-014
lfoot -1.24485 -11.7057
ltoes 11.71
1962
root 8.57232 24.6487 12.4179 -182.045 0.194518 -177.355
lowerback 8.66144 0.0960605 0.253895
upperback 2.65477 0.470597 2.39697
thorax -2.12481 0.340628 2.2815
lowerneck -12.8084 -0.184129 -9.63352
upperneck 38.2789 -5.20566 6.59418
head 16.1853 -4.30947 3.26043
rclavicle -3.97569e-016 -3.97569e-015
rhumerus -30.8364 -10.2208 -78.4584
rradius 31.892
rwrist -8.73137
rhand -20.3101 13.9084
rfingers 7.12502
rthumb 6.04039 -15.9855
lclavicle -3.97569e-016 -3.97569e-015
lhumerus -31.022 3.28536 87.3344
lradius 26.5965
lwrist -4.98855
lhand -22.1912 19.3199
lfingers 7.12502
lthumb 4.22416 49.2578
rfemur -29.1359 -5.3639 22.1118
rtibia 62.034
rfoot -0.490809 16.7051
rtoes -30.0973
lfemur 9.24249 0.873815 -20.2654
ltibia 0
lfoot -1.83243 -11.6842
ltoes 8.96664
1963
root 8.5565 24.6588 12.3814 -182.212 0.0676133 -178.014
lowerback 8.76321 0.0667488 -0.379695
upperback 2.75336 0.367903 2.20222
thorax -2.07643 0.287584 2.44781
lowerneck -12.9893 -0.19358 -9.85833
upperneck 38.2661 -5.17684 6.78969
head 16.2337 -4.29278 3.39393
rclavicle 2.68359e-015 1.90833e-014
rhumerus -30.8348 -10.2627 -78.3171
rradius 31.3642
rwrist -8.60294
rhand -20.2961 14.4755
rfingers 7.12502
rthumb 6.05392 -15.418
lclavicle 2.68359e-015 1.90833e-014
lhumerus -30.8879 2.77193 87.7555
lradius 26.8581
lwrist -2.67651
lhand -24.6721 20.651
lfingers 7.12502
lthumb 1.82827 50.6229
rfemur -30.4927 -5.76404 21.2385
rtibia 64.3127
rfoot -0.728202 17.1249
rtoes -30.09
lfemur 9.56382 0.789202 -21.0176
ltibia 2.70347e-014
lfoot -2.45885 -11.3402
ltoes 5.68739
1964
root 8.54074 24.6701 12.3444 -182.43 -0.125143 -178.184
lowerback 8.905 0.302699 -0.416623
upperback 2.8602 0.158301 2.10745
thorax -2.03597 -0.0387738 2.40034
lowerneck -13.0901 -0.22679 -9.97796
upperneck 38.2207 -5.20726 6.9243
head 16.2477 -4.29532 3.4704
rclavicle 2.13694e-015 7.95139e-015
rhumerus -30.7076 -10.5764 -78.2005
rradius 30.6764
rwrist -8.22791
rhand -20.2427 14.4503
rfingers 7.12502
rthumb 6.10553 -15.4418
lclavicle 2.13694e-015 7.95139e-015
lhumerus -30.7533 3.15961 87.4969
lradius 26.9886
lwrist -3.06834
lhand -23.3421 20.5274
lfingers 7.12502
lthumb 3.11275 50.4844
rfemur -31.763 -6.31026 20.9358
rtibia 66.5847
rfoot -0.718177 17.1859
rtoes -29.2549
lfemur 9.95421 0.620612 -21.2444
ltibia 1.59028e-015
lfoot -2.87077 -11.0719
ltoes 3.75482
